<mxfile host="app.diagrams.net" modified="2023-10-01T00:04:04.849Z" agent="Mozilla/5.0 (Windows NT 10.0; Win64; x64) AppleWebKit/537.36 (KHTML, like Gecko) Chrome/117.0.0.0 Safari/537.36" etag="qjv9AIaGCvnmD6nv2Z3s" version="22.0.0" type="device">
  <diagram name="Page-1" id="42789a77-a242-8287-6e28-9cd8cfd52e62">
    <mxGraphModel dx="1477" dy="606" grid="1" gridSize="10" guides="1" tooltips="1" connect="1" arrows="1" fold="1" page="1" pageScale="1" pageWidth="1100" pageHeight="850" background="none" math="0" shadow="0">
      <root>
        <mxCell id="0" />
        <mxCell id="1" parent="0" />
        <mxCell id="1ea317790d2ca983-1" value="entrance" style="ellipse;whiteSpace=wrap;html=1;rounded=0;shadow=1;comic=0;labelBackgroundColor=none;strokeWidth=1;fontFamily=Verdana;fontSize=12;align=center;" parent="1" vertex="1">
          <mxGeometry x="750" y="10" width="90" height="60" as="geometry" />
        </mxCell>
        <mxCell id="1ea317790d2ca983-2" value="&lt;span&gt;Node 2&lt;/span&gt;" style="ellipse;whiteSpace=wrap;html=1;rounded=0;shadow=1;comic=0;labelBackgroundColor=none;strokeWidth=1;fontFamily=Verdana;fontSize=12;align=center;" parent="1" vertex="1">
          <mxGeometry x="510" y="120" width="75" height="50" as="geometry" />
        </mxCell>
        <mxCell id="1ea317790d2ca983-3" value="&lt;span&gt;Node 3&lt;/span&gt;" style="ellipse;whiteSpace=wrap;html=1;rounded=0;shadow=1;comic=0;labelBackgroundColor=none;strokeWidth=1;fontFamily=Verdana;fontSize=12;align=center;" parent="1" vertex="1">
          <mxGeometry x="880" y="180" width="75" height="50" as="geometry" />
        </mxCell>
        <mxCell id="1ea317790d2ca983-4" value="&lt;span&gt;Node 7&lt;/span&gt;" style="ellipse;whiteSpace=wrap;html=1;rounded=0;shadow=1;comic=0;labelBackgroundColor=none;strokeWidth=1;fontFamily=Verdana;fontSize=12;align=center;" parent="1" vertex="1">
          <mxGeometry x="750" y="190" width="75" height="50" as="geometry" />
        </mxCell>
        <mxCell id="1ea317790d2ca983-5" value="&lt;span&gt;Node 9&lt;/span&gt;" style="ellipse;whiteSpace=wrap;html=1;rounded=0;shadow=1;comic=0;labelBackgroundColor=none;strokeWidth=1;fontFamily=Verdana;fontSize=12;align=center;" parent="1" vertex="1">
          <mxGeometry x="590" y="520" width="75" height="50" as="geometry" />
        </mxCell>
        <mxCell id="1ea317790d2ca983-6" value="&lt;span&gt;Node 6&lt;/span&gt;" style="ellipse;whiteSpace=wrap;html=1;rounded=0;shadow=1;comic=0;labelBackgroundColor=none;strokeWidth=1;fontFamily=Verdana;fontSize=12;align=center;" parent="1" vertex="1">
          <mxGeometry x="532.5" y="440" width="75" height="50" as="geometry" />
        </mxCell>
        <mxCell id="1ea317790d2ca983-7" value="&lt;span&gt;Node 5&lt;/span&gt;" style="ellipse;whiteSpace=wrap;html=1;rounded=0;shadow=1;comic=0;labelBackgroundColor=none;strokeWidth=1;fontFamily=Verdana;fontSize=12;align=center;" parent="1" vertex="1">
          <mxGeometry x="410" y="190" width="75" height="50" as="geometry" />
        </mxCell>
        <mxCell id="1ea317790d2ca983-8" value="Node 10" style="ellipse;whiteSpace=wrap;html=1;rounded=0;shadow=1;comic=0;labelBackgroundColor=none;strokeWidth=1;fontFamily=Verdana;fontSize=12;align=center;" parent="1" vertex="1">
          <mxGeometry x="457.5" y="510" width="75" height="50" as="geometry" />
        </mxCell>
        <mxCell id="1ea317790d2ca983-9" value="Node 1" style="ellipse;whiteSpace=wrap;html=1;rounded=0;shadow=1;comic=0;labelBackgroundColor=none;strokeWidth=1;fontFamily=Verdana;fontSize=12;align=center;" parent="1" vertex="1">
          <mxGeometry x="475" y="50" width="75" height="50" as="geometry" />
        </mxCell>
        <mxCell id="1ea317790d2ca983-10" value="&lt;span&gt;Node 4&lt;/span&gt;" style="ellipse;whiteSpace=wrap;html=1;rounded=0;shadow=1;comic=0;labelBackgroundColor=none;strokeWidth=1;fontFamily=Verdana;fontSize=12;align=center;" parent="1" vertex="1">
          <mxGeometry x="140" y="190" width="75" height="50" as="geometry" />
        </mxCell>
        <mxCell id="1ea317790d2ca983-11" value="&lt;span&gt;Node 8&lt;/span&gt;" style="ellipse;whiteSpace=wrap;html=1;rounded=0;shadow=1;comic=0;labelBackgroundColor=none;strokeWidth=1;fontFamily=Verdana;fontSize=12;align=center;" parent="1" vertex="1">
          <mxGeometry x="210" y="470" width="75" height="50" as="geometry" />
        </mxCell>
        <mxCell id="c1FL4_qAb5ASs3nZNQe7-5" value="" style="endArrow=classic;startArrow=classic;html=1;rounded=0;exitX=0.5;exitY=0;exitDx=0;exitDy=0;" edge="1" parent="1" source="1ea317790d2ca983-11" target="1ea317790d2ca983-10">
          <mxGeometry width="50" height="50" relative="1" as="geometry">
            <mxPoint x="140" y="310" as="sourcePoint" />
            <mxPoint x="190" y="260" as="targetPoint" />
          </mxGeometry>
        </mxCell>
        <mxCell id="c1FL4_qAb5ASs3nZNQe7-8" value="20" style="edgeLabel;html=1;align=center;verticalAlign=middle;resizable=0;points=[];" vertex="1" connectable="0" parent="c1FL4_qAb5ASs3nZNQe7-5">
          <mxGeometry x="0.4924" y="4" relative="1" as="geometry">
            <mxPoint as="offset" />
          </mxGeometry>
        </mxCell>
        <mxCell id="c1FL4_qAb5ASs3nZNQe7-9" value="" style="endArrow=classic;startArrow=classic;html=1;rounded=0;exitX=0;exitY=0.5;exitDx=0;exitDy=0;entryX=1;entryY=0.5;entryDx=0;entryDy=0;" edge="1" parent="1" source="1ea317790d2ca983-8" target="1ea317790d2ca983-11">
          <mxGeometry width="50" height="50" relative="1" as="geometry">
            <mxPoint x="410" y="510" as="sourcePoint" />
            <mxPoint x="346" y="280" as="targetPoint" />
          </mxGeometry>
        </mxCell>
        <mxCell id="c1FL4_qAb5ASs3nZNQe7-10" value="10" style="edgeLabel;html=1;align=center;verticalAlign=middle;resizable=0;points=[];" vertex="1" connectable="0" parent="c1FL4_qAb5ASs3nZNQe7-9">
          <mxGeometry x="0.4924" y="4" relative="1" as="geometry">
            <mxPoint as="offset" />
          </mxGeometry>
        </mxCell>
        <mxCell id="c1FL4_qAb5ASs3nZNQe7-11" value="" style="endArrow=classic;startArrow=classic;html=1;rounded=0;" edge="1" parent="1" source="1ea317790d2ca983-5" target="1ea317790d2ca983-8">
          <mxGeometry width="50" height="50" relative="1" as="geometry">
            <mxPoint x="468" y="545" as="sourcePoint" />
            <mxPoint x="295" y="505" as="targetPoint" />
          </mxGeometry>
        </mxCell>
        <mxCell id="c1FL4_qAb5ASs3nZNQe7-12" value="3" style="edgeLabel;html=1;align=center;verticalAlign=middle;resizable=0;points=[];" vertex="1" connectable="0" parent="c1FL4_qAb5ASs3nZNQe7-11">
          <mxGeometry x="0.4924" y="4" relative="1" as="geometry">
            <mxPoint as="offset" />
          </mxGeometry>
        </mxCell>
        <mxCell id="c1FL4_qAb5ASs3nZNQe7-13" value="" style="endArrow=classic;startArrow=classic;html=1;rounded=0;exitX=0;exitY=1;exitDx=0;exitDy=0;" edge="1" parent="1" source="1ea317790d2ca983-6" target="1ea317790d2ca983-8">
          <mxGeometry width="50" height="50" relative="1" as="geometry">
            <mxPoint x="600" y="553" as="sourcePoint" />
            <mxPoint x="542" y="548" as="targetPoint" />
          </mxGeometry>
        </mxCell>
        <mxCell id="c1FL4_qAb5ASs3nZNQe7-14" value="3" style="edgeLabel;html=1;align=center;verticalAlign=middle;resizable=0;points=[];" vertex="1" connectable="0" parent="c1FL4_qAb5ASs3nZNQe7-13">
          <mxGeometry x="0.4924" y="4" relative="1" as="geometry">
            <mxPoint as="offset" />
          </mxGeometry>
        </mxCell>
        <mxCell id="c1FL4_qAb5ASs3nZNQe7-15" value="" style="endArrow=classic;startArrow=classic;html=1;rounded=0;" edge="1" parent="1" source="1ea317790d2ca983-6" target="1ea317790d2ca983-5">
          <mxGeometry width="50" height="50" relative="1" as="geometry">
            <mxPoint x="553" y="493" as="sourcePoint" />
            <mxPoint x="525" y="524" as="targetPoint" />
          </mxGeometry>
        </mxCell>
        <mxCell id="c1FL4_qAb5ASs3nZNQe7-16" value="3" style="edgeLabel;html=1;align=center;verticalAlign=middle;resizable=0;points=[];" vertex="1" connectable="0" parent="c1FL4_qAb5ASs3nZNQe7-15">
          <mxGeometry x="0.4924" y="4" relative="1" as="geometry">
            <mxPoint as="offset" />
          </mxGeometry>
        </mxCell>
        <mxCell id="c1FL4_qAb5ASs3nZNQe7-17" value="" style="endArrow=classic;startArrow=classic;html=1;rounded=0;exitX=0.233;exitY=0;exitDx=0;exitDy=0;exitPerimeter=0;" edge="1" parent="1" source="1ea317790d2ca983-6" target="1ea317790d2ca983-7">
          <mxGeometry width="50" height="50" relative="1" as="geometry">
            <mxPoint x="596" y="498" as="sourcePoint" />
            <mxPoint x="621" y="532" as="targetPoint" />
          </mxGeometry>
        </mxCell>
        <mxCell id="c1FL4_qAb5ASs3nZNQe7-18" value="20" style="edgeLabel;html=1;align=center;verticalAlign=middle;resizable=0;points=[];" vertex="1" connectable="0" parent="c1FL4_qAb5ASs3nZNQe7-17">
          <mxGeometry x="0.4924" y="4" relative="1" as="geometry">
            <mxPoint as="offset" />
          </mxGeometry>
        </mxCell>
        <mxCell id="c1FL4_qAb5ASs3nZNQe7-19" value="" style="endArrow=classic;startArrow=classic;html=1;rounded=0;exitX=0.5;exitY=0;exitDx=0;exitDy=0;" edge="1" parent="1" source="1ea317790d2ca983-7" target="1ea317790d2ca983-9">
          <mxGeometry width="50" height="50" relative="1" as="geometry">
            <mxPoint x="560" y="450" as="sourcePoint" />
            <mxPoint x="468" y="249" as="targetPoint" />
          </mxGeometry>
        </mxCell>
        <mxCell id="c1FL4_qAb5ASs3nZNQe7-20" value="5" style="edgeLabel;html=1;align=center;verticalAlign=middle;resizable=0;points=[];" vertex="1" connectable="0" parent="c1FL4_qAb5ASs3nZNQe7-19">
          <mxGeometry x="0.4924" y="4" relative="1" as="geometry">
            <mxPoint as="offset" />
          </mxGeometry>
        </mxCell>
        <mxCell id="c1FL4_qAb5ASs3nZNQe7-21" value="" style="endArrow=classic;startArrow=classic;html=1;rounded=0;entryX=1;entryY=1;entryDx=0;entryDy=0;" edge="1" parent="1" source="1ea317790d2ca983-2" target="1ea317790d2ca983-9">
          <mxGeometry width="50" height="50" relative="1" as="geometry">
            <mxPoint x="458" y="200" as="sourcePoint" />
            <mxPoint x="509" y="108" as="targetPoint" />
          </mxGeometry>
        </mxCell>
        <mxCell id="c1FL4_qAb5ASs3nZNQe7-22" value="2" style="edgeLabel;html=1;align=center;verticalAlign=middle;resizable=0;points=[];" vertex="1" connectable="0" parent="c1FL4_qAb5ASs3nZNQe7-21">
          <mxGeometry x="0.4924" y="4" relative="1" as="geometry">
            <mxPoint as="offset" />
          </mxGeometry>
        </mxCell>
        <mxCell id="c1FL4_qAb5ASs3nZNQe7-23" value="" style="endArrow=classic;startArrow=classic;html=1;rounded=0;entryX=0.98;entryY=0.648;entryDx=0;entryDy=0;entryPerimeter=0;" edge="1" parent="1" source="1ea317790d2ca983-1" target="1ea317790d2ca983-9">
          <mxGeometry width="50" height="50" relative="1" as="geometry">
            <mxPoint x="554" y="130" as="sourcePoint" />
            <mxPoint x="549" y="103" as="targetPoint" />
          </mxGeometry>
        </mxCell>
        <mxCell id="c1FL4_qAb5ASs3nZNQe7-24" value="10" style="edgeLabel;html=1;align=center;verticalAlign=middle;resizable=0;points=[];" vertex="1" connectable="0" parent="c1FL4_qAb5ASs3nZNQe7-23">
          <mxGeometry x="0.4924" y="4" relative="1" as="geometry">
            <mxPoint as="offset" />
          </mxGeometry>
        </mxCell>
        <mxCell id="c1FL4_qAb5ASs3nZNQe7-25" value="" style="endArrow=classic;startArrow=classic;html=1;rounded=0;" edge="1" parent="1" source="1ea317790d2ca983-4">
          <mxGeometry width="50" height="50" relative="1" as="geometry">
            <mxPoint x="761" y="57" as="sourcePoint" />
            <mxPoint x="550" y="80" as="targetPoint" />
          </mxGeometry>
        </mxCell>
        <mxCell id="c1FL4_qAb5ASs3nZNQe7-26" value="10" style="edgeLabel;html=1;align=center;verticalAlign=middle;resizable=0;points=[];" vertex="1" connectable="0" parent="c1FL4_qAb5ASs3nZNQe7-25">
          <mxGeometry x="0.4924" y="4" relative="1" as="geometry">
            <mxPoint as="offset" />
          </mxGeometry>
        </mxCell>
        <mxCell id="c1FL4_qAb5ASs3nZNQe7-27" value="" style="endArrow=classic;startArrow=classic;html=1;rounded=0;exitX=0.5;exitY=0;exitDx=0;exitDy=0;" edge="1" parent="1" source="1ea317790d2ca983-4" target="1ea317790d2ca983-1">
          <mxGeometry width="50" height="50" relative="1" as="geometry">
            <mxPoint x="769" y="209" as="sourcePoint" />
            <mxPoint x="560" y="90" as="targetPoint" />
          </mxGeometry>
        </mxCell>
        <mxCell id="c1FL4_qAb5ASs3nZNQe7-28" value="5" style="edgeLabel;html=1;align=center;verticalAlign=middle;resizable=0;points=[];" vertex="1" connectable="0" parent="c1FL4_qAb5ASs3nZNQe7-27">
          <mxGeometry x="0.4924" y="4" relative="1" as="geometry">
            <mxPoint as="offset" />
          </mxGeometry>
        </mxCell>
        <mxCell id="c1FL4_qAb5ASs3nZNQe7-29" value="" style="endArrow=classic;startArrow=classic;html=1;rounded=0;" edge="1" parent="1" source="1ea317790d2ca983-3" target="1ea317790d2ca983-1">
          <mxGeometry width="50" height="50" relative="1" as="geometry">
            <mxPoint x="798" y="200" as="sourcePoint" />
            <mxPoint x="804" y="80" as="targetPoint" />
          </mxGeometry>
        </mxCell>
        <mxCell id="c1FL4_qAb5ASs3nZNQe7-30" value="5" style="edgeLabel;html=1;align=center;verticalAlign=middle;resizable=0;points=[];" vertex="1" connectable="0" parent="c1FL4_qAb5ASs3nZNQe7-29">
          <mxGeometry x="0.4924" y="4" relative="1" as="geometry">
            <mxPoint as="offset" />
          </mxGeometry>
        </mxCell>
        <mxCell id="c1FL4_qAb5ASs3nZNQe7-31" value="" style="endArrow=classic;startArrow=classic;html=1;rounded=0;exitX=1;exitY=0.5;exitDx=0;exitDy=0;" edge="1" parent="1" source="1ea317790d2ca983-4" target="1ea317790d2ca983-3">
          <mxGeometry width="50" height="50" relative="1" as="geometry">
            <mxPoint x="911" y="193" as="sourcePoint" />
            <mxPoint x="825" y="77" as="targetPoint" />
          </mxGeometry>
        </mxCell>
        <mxCell id="c1FL4_qAb5ASs3nZNQe7-32" value="2" style="edgeLabel;html=1;align=center;verticalAlign=middle;resizable=0;points=[];" vertex="1" connectable="0" parent="c1FL4_qAb5ASs3nZNQe7-31">
          <mxGeometry x="0.4924" y="4" relative="1" as="geometry">
            <mxPoint as="offset" />
          </mxGeometry>
        </mxCell>
        <mxCell id="c1FL4_qAb5ASs3nZNQe7-33" value="" style="endArrow=classic;startArrow=classic;html=1;rounded=0;exitX=0.251;exitY=0.919;exitDx=0;exitDy=0;exitPerimeter=0;entryX=1;entryY=0.5;entryDx=0;entryDy=0;" edge="1" parent="1" source="1ea317790d2ca983-2" target="1ea317790d2ca983-7">
          <mxGeometry width="50" height="50" relative="1" as="geometry">
            <mxPoint x="835" y="225" as="sourcePoint" />
            <mxPoint x="890" y="219" as="targetPoint" />
          </mxGeometry>
        </mxCell>
        <mxCell id="c1FL4_qAb5ASs3nZNQe7-34" value="5" style="edgeLabel;html=1;align=center;verticalAlign=middle;resizable=0;points=[];" vertex="1" connectable="0" parent="c1FL4_qAb5ASs3nZNQe7-33">
          <mxGeometry x="0.4924" y="4" relative="1" as="geometry">
            <mxPoint as="offset" />
          </mxGeometry>
        </mxCell>
        <mxCell id="c1FL4_qAb5ASs3nZNQe7-35" value="" style="endArrow=classic;startArrow=classic;html=1;rounded=0;" edge="1" parent="1" source="1ea317790d2ca983-7" target="1ea317790d2ca983-10">
          <mxGeometry width="50" height="50" relative="1" as="geometry">
            <mxPoint x="539" y="176" as="sourcePoint" />
            <mxPoint x="495" y="225" as="targetPoint" />
          </mxGeometry>
        </mxCell>
        <mxCell id="c1FL4_qAb5ASs3nZNQe7-36" value="10" style="edgeLabel;html=1;align=center;verticalAlign=middle;resizable=0;points=[];" vertex="1" connectable="0" parent="c1FL4_qAb5ASs3nZNQe7-35">
          <mxGeometry x="0.4924" y="4" relative="1" as="geometry">
            <mxPoint as="offset" />
          </mxGeometry>
        </mxCell>
      </root>
    </mxGraphModel>
  </diagram>
</mxfile>
